<svg xmlns="http://www.w3.org/2000/svg" version="1.1" viewBox="-5.0 -10.0 110.0 135.0">
 <path d="m81 24.031c0.46094-4.6914-1.2539-7.8594-2.8438-9.7344-2.3281-2.75-6.0234-4.5234-9.4062-4.5234-2.2344 0-3.8359 1.4297-4.293 3.8203-0.93359 4.8984 3.0352 12.148 11.07 15.328 0.38281 0.15234 0.82031 0.089844 1.1484-0.16406 0.32812-0.25391 0.49609-0.66406 0.44531-1.0703-0.097656-0.77344-0.17188-1.5664-0.23828-2.3359-0.39453-4.3867-0.80469-8.9219-5.9297-12.258-0.54297-0.35156-1.2656-0.19922-1.6211 0.34375-0.35156 0.54297-0.19922 1.2695 0.34375 1.6211 4.1719 2.7148 4.5 6.3242 4.875 10.504 0.007813 0.11719 0.023438 0.23438 0.03125 0.35547-5.9922-3.1445-8.4258-8.7109-7.8203-11.883 0.24219-1.2695 0.91406-1.9102 1.9922-1.9102 2.0703 0 5.3047 0.96875 7.6172 3.6953 2.0039 2.3672 2.7539 5.4766 2.1641 9-0.054687 0.3125 0.023438 0.63281 0.21094 0.88281 0.1875 0.25391 0.46875 0.42188 0.78125 0.46875 3.5195 0.49609 11.422 2.3906 14.707 5.9531l-0.5 0.0625c-0.64062 0.082031-1.0938 0.67188-1.0117 1.3125 0.078125 0.59375 0.57812 1.0234 1.1602 1.0234 0.050782 0 0.10156-0.003907 0.14844-0.007813l1.5-0.19531c0.10938 0.38281 0.17188 0.77734 0.17188 1.1875 0 0.17969-0.23047 0.54297-0.74609 0.80469-0.38281 0.19531-1.7812 0.71875-3.6406-0.64844-0.42188-0.30859-0.99609-0.30469-1.4102 0.015626-0.51562 0.39453-0.96875 0.8125-1.4062 1.2109-2.0898 1.9102-3.9141 3.5781-11.516 1.457l1.6211-2.2344c0.24219-0.33594 0.28906-0.77344 0.125-1.1562-0.16406-0.38281-0.51953-0.64453-0.92969-0.69531l-0.99219-0.12109 0.51562-0.57031c0.4375-0.48047 0.40234-1.2188-0.078125-1.6562-0.48047-0.4375-1.2188-0.39844-1.6562 0.078126l-2.0469 2.2422c-0.29688 0.32422-0.38281 0.78516-0.23438 1.1953 0.15234 0.41016 0.52344 0.70312 0.95312 0.75781l1.2695 0.15625-1.4258 1.9648c-0.21875 0.30469-0.28125 0.69922-0.16406 1.0547 0.12109 0.35547 0.40234 0.63672 0.76172 0.75 0.35156 0.10938 0.6875 0.21094 1.0234 0.30859-0.96484 1.3672-2.6562 3.6602-4.2422 5.2422-0.45703 0.45703-0.45703 1.1992 0 1.6562 0.22656 0.22656 0.53125 0.34375 0.82812 0.34375 0.30078 0 0.60156-0.11719 0.82812-0.34375 0.85938-0.85937 1.7344-1.8906 2.5195-2.8828 3.0469 0.13281 4.6016 1.6094 5.1562 3.25-1.0547-0.60156-2.2461-1.2656-3.3047-1.2305-2.457 0.074219-3.6211 1.2383-4.1641 2.2031-0.29688 0.52344-1.1953 2.1172-2.332 2.4219-0.44531 0.11719-0.92188 0.023438-1.4531-0.29688-0.28125-0.16797-0.61719-0.21094-0.92969-0.11719-0.3125 0.089843-0.57422 0.30469-0.71875 0.59766-0.078124 0.15625-0.16406 0.33203-0.25781 0.51562-1.2109 2.4531-3.3125 6.707-8.3594 9.1797 1.7578-2.0977 2.8047-4.8164 2.8047-7.8281 0-0.64844-0.52344-1.1719-1.1719-1.1719-0.64844 0-1.1719 0.52344-1.1719 1.1719 0 5.4766-4.2891 9.7656-9.7656 9.7656-8.2617 0-13.289-1.7852-16.055-3.2773-2.9453-1.5938-4.9141-3.7383-5.2656-5.7305-0.10938-0.63672-0.71875-1.0625-1.3555-0.95312-0.63672 0.10938-1.0625 0.71875-0.95312 1.3555 0.79688 4.5469 6.6992 9.3906 17.875 10.641l-5.9922 5.6445c-0.28906 0.27344-0.42188 0.67188-0.35156 1.0625 0.070313 0.39062 0.33594 0.71875 0.70312 0.87109l17.965 7.4805c0.19531 0.078124 0.40625 0.10937 0.61719 0.078124 1.5-0.21484 5.6562-0.76562 6.8711-0.76562 1.4609 0 2.4453 0.53516 3.0234 1.6367 0.125 0.23828 0.21875 0.48047 0.28906 0.70703h-10.887l-20.938-8.7891v-2.0547l3.7148-3.7148c0.45703-0.45703 0.45703-1.1992 0-1.6562-0.45703-0.46094-1.1992-0.45703-1.6562 0l-4.0547 4.0547c-0.21875 0.21875-0.34375 0.51562-0.34375 0.82812v3.3203c0 0.47266 0.28125 0.89844 0.71875 1.0781l21.875 9.1797c0.14453 0.0625 0.29688 0.09375 0.45312 0.09375h12.5c0.64844 0 1.1719-0.52344 1.1719-1.1719 0-2.0273-1.2266-5.8594-5.8594-5.8594-1.418 0-5.668 0.57812-6.8789 0.74219l-16-6.6641 6.2227-5.8594c0.83984 0.039063 1.7031 0.0625 2.5938 0.0625 13.055 0 17.555-7.9922 19.523-11.934 0.70312 0.20703 1.4062 0.21875 2.1016 0.035156 2.0938-0.55469 3.3125-2.7188 3.7734-3.5352 0.36719-0.64844 1.082-0.97656 2.1953-1.0117h0.015625c0.4375 0 1.5039 0.60938 2.1406 0.96875 1.2266 0.69922 2.1133 1.2031 2.9688 0.71094 0.44531-0.25781 0.70312-0.72656 0.70312-1.2891 0-2.9688-1.9297-6.1289-6.1172-6.918 0.35156-0.49219 0.64844-0.91406 0.85156-1.2148 1.9062 0.42969 3.4688 0.61719 4.7852 0.61719 3.8125 0 5.5-1.543 7.1484-3.0547 0.21094-0.19531 0.41406-0.38281 0.625-0.5625 1.7852 1.0156 3.7188 1.1484 5.3125 0.34375 1.25-0.63281 2.0312-1.7422 2.0312-2.8945 0-7.7656-13.023-10.734-17.047-11.469z"/>
 <path d="m29.84 81.062c-3.0312-0.42188-7.0469 2.25-10.293 6.8164-4.6172-0.11719-8.4805-1.2891-11.207-3.4062-2.6406-2.0547-4.0391-4.8516-4.0391-8.0859 0-5.25 4.2031-7.8672 9.0703-10.898 3.3672-2.0938 6.8438-4.2617 9.3125-7.5469 1.207-1.6094 2.1953-3.6055 3.2422-5.7188 3.1758-6.4062 7.125-14.375 20.223-18.293 4.5859-1.375 8.6719-1.2422 12.277-1.125 4.4609 0.14453 8.6758 0.28125 12.57-2.4961 0.52734-0.375 0.64844-1.1094 0.27344-1.6328-0.375-0.52734-1.1094-0.64844-1.6328-0.27344-3.25 2.3164-6.7305 2.2031-11.137 2.0625-3.7852-0.125-8.0742-0.25781-13.023 1.2227-14.07 4.2109-18.453 13.047-21.648 19.5-1.0391 2.1016-1.9414 3.9141-3.0195 5.3516-2.2031 2.9336-5.4922 4.9844-8.6719 6.9609-5 3.1133-10.172 6.332-10.172 12.883 0 8.2812 7.3789 13.844 18.359 13.844 3.6602 0 10.023-1.4922 11.957-4.1953 0.75-1.0469 0.65625-2 0.45312-2.6094-0.44531-1.3125-1.5-2.1719-2.8828-2.3672zm0.52344 3.6094c-0.92188 1.2891-4.4062 2.5938-7.7383 3.0469 2.457-2.9141 4.9844-4.3594 6.5703-4.3594 0.10938 0 0.21875 0.007813 0.32031 0.023437 0.51953 0.070313 0.82422 0.32031 0.98828 0.80078 0.023438 0.070312 0.070313 0.20312-0.14062 0.48828z"/>
 <path d="m87.109 31.25c0 1.5625-2.3438 1.5625-2.3438 0s2.3438-1.5625 2.3438 0z"/>
</svg>